<?xml version="1.0" encoding="utf-8"?>
<!-- Generator: Adobe Illustrator 25.0.0, SVG Export Plug-In . SVG Version: 6.00 Build 0)  -->
<svg version="1.1" id="Calque_1" xmlns="http://www.w3.org/2000/svg" xmlns:xlink="http://www.w3.org/1999/xlink" x="0px" y="0px"
	 viewBox="0 0 800 316" style="enable-background:new 0 0 800 316;" xml:space="preserve">
<style type="text/css">
	.st0{fill:#FFFFFF;}
</style>
<g>
	<path class="st0" d="M1.1,122.1c0.9-7.4,3.1-13.7,6.6-19c3.5-5.3,7.7-9.8,12.5-13.3c4.9-3.6,10.1-6.2,15.7-7.9
		c5.7-1.7,11-2.6,16-2.6c2.1,0,4.2,0.1,6.2,0.5c2,0.4,3.8,0.8,5.4,1.3c3.6,1.3,6.8,3.3,9.7,6.1c2.9,2.8,5.3,5.8,7.2,9.2
		c2,3.3,3.5,6.8,4.4,10.5s1.3,7,1.1,10c-0.3,3-1.1,5.5-2.6,7.5c-1.4,2.1-3.7,3.2-6.7,3.4c-2.1,0.1-4.1-0.3-5.7-1.3
		c-1.6-1.1-3.2-2.3-4.7-3.6c-1.6-1.3-3-2.6-4.3-3.8s-2.7-1.8-4.1-1.8c-1.3,0-2.7,0.8-4.3,2.4c-1.4,1.6-1.8,4-1.1,7.2
		c0.7,3.2,2.1,6.7,4.1,10.5c2.1,3.8,4.7,7.8,7.9,11.7c3.3,3.9,6.7,7.5,10.4,10.8c3.7,3.3,7.4,5.8,11,7.8c3.7,2,7.2,2.8,10.4,2.4
		c2.7-0.1,4.7-2.2,6.1-6.1c1.3-3.8,2.2-8.7,2.7-14.7c0.4-5.9,0.5-12.4,0.3-19.5c-0.3-7.1-0.7-14-1.3-20.6c-0.7-6.7-1.3-12.6-2-18
		c-0.7-5.4-1.3-9.3-1.9-11.8c-1.1-4.5-2.4-9.1-3.9-13.9c-1.6-4.7-3.2-9.1-5-12.9c-1.8-3.8-3.5-7-5.2-9.5c-1.7-2.5-3.3-3.8-4.7-4.1
		c-2.1-0.1-3.1,1.2-2.8,4.1c0.3,2.9,0.7,6.1,1.3,9.8c0.6,3.7,1,7,1.1,10.1c0.1,3-1,4.7-3.4,5.1c-3.4,0.4-6.7-1.1-10-4.3
		c-3.3-3.3-6.1-7.2-8.5-11.8c-2.4-4.7-4.4-9.7-6.1-14.9c-1.6-5.3-2.6-9.8-3-13.6c-0.9-7.9,0-13.5,2.7-17c2.7-3.4,7.2-4.4,13.8-3
		c4.3,1.1,9.2,1.9,14.8,2.4s11.2,1,17.1,1.2c5.8,0.3,11.6,0.4,17.2,0.3c5.7-0.1,10.7-0.2,15.2-0.4c8.8-0.4,14.4,0.7,16.9,3
		c2.4,2.4,3.4,6.1,2.8,11.3c-1.4,11.8-1.9,23.7-1.5,35.6c0.4,11.8,0.9,23.4,1.3,34.6c0.4,11.2,0.5,22,0.1,32.3
		c-0.4,10.4-2.1,19.9-5.4,28.7c-6.4,18.3-16.3,31.4-29.4,39.2s-28.2,10.8-45.3,9c-8.3-0.7-16.9-2.8-25.7-6.4
		c-8.9-3.5-16.9-8.4-23.8-14.8c-7-6.4-12.5-14.3-16.4-23.7C0.7,146.2-0.5,135,1.1,122.1z"/>
	<path class="st0" d="M231.5,4.9c8.4-0.5,17.5-0.2,27.2,1s19.1,3.9,28.2,8.2c9.1,4.3,17.2,10.5,24.4,18.5c7.2,8,12.5,18.6,15.9,31.9
		c2.4,9.3,3.7,18.9,4.1,28.8c0.4,9.9,0,19.5-1.3,29s-3.6,18.5-6.9,27.1c-3.3,8.7-7.3,16.3-12.3,22.9c-5,6.7-10.8,12.2-17.5,16.6
		c-6.7,4.4-14.3,7.2-22.5,8.2c-5,0.7-9.9,1.3-14.6,1.6c-4.7,0.4-9.2,0.5-13.8,0.5c-8.9,0-17.4-0.9-25.2-2.7
		c-7.8-1.8-14.9-4.9-21.3-9.3c-6.4-4.4-12-10.4-16.7-17.7c-4.7-7.5-8.6-16.7-11.5-27.9c-5.4-20.9-7.2-39.5-5.2-56
		c1.9-16.5,6.1-30.6,12.6-42.3c6.6-11.7,14.8-20.8,24.8-27.4C210,9.2,220.5,5.5,231.5,4.9z M204,66.8c0.9,2.1,2,4.3,3.4,6.4
		c1.3,2.1,2.9,4.1,4.6,5.7c1.7,1.6,3.5,3,5.2,3.9c1.8,1,3.5,1.5,5.1,1.5c1.1,0,2.2-0.4,3.5-1.3c1.8-1.8,2.4-3.4,1.6-4.7
		c-0.7-1.3-1.8-2.7-3.3-4.1c-1.4-1.3-2.7-2.7-3.9-4.1c-1.2-1.3-1.3-2.8-0.4-4.4c2-3.9,6.9-5.1,14.8-3.5c2,0.4,4.2,1,6.7,2
		s4.9,2.7,7,5.1c2.1,2.4,3.9,5.8,5.4,10c1.4,4.2,2.2,9.8,2.4,16.9c0.1,4.1-0.2,8.1-1.2,12c-1,3.8-2.4,7.3-4.1,10.4
		c-1.8,3-3.8,5.6-6.1,7.7c-2.2,2.1-4.7,3.4-7.2,3.9c-1.8,0.4-3.8,0.4-5.9,0.3c-2.1-0.1-4.1-0.2-5.8-0.1c-1.7,0.1-3,0.5-3.9,1.2
		c-0.9,0.7-1,2.1-0.3,4.3c0.9,2.1,2.6,4.8,5.1,7.9c2.5,3.2,5.7,6.1,9.5,8.9c3.8,2.8,8,5.1,12.6,6.9c4.7,1.8,9.6,2.4,14.8,1.9
		c5.2-0.5,9.7-2.1,13.3-4.9c3.7-2.7,6.6-6.1,8.7-10.2c2.1-4.1,3.7-8.7,4.6-13.5c0.9-4.9,1.1-9.7,0.5-14.6c-0.5-6.1-2.2-12.6-5-19.4
		c-2.8-6.8-6.1-13.5-10.1-20.2c-3.9-6.7-8.4-13-13.2-19.2c-4.9-6.1-9.6-11.4-14.3-15.9c-4.7-4.5-9.2-7.9-13.5-10.4
		c-4.3-2.4-7.9-3.4-10.8-2.8c-3.8,0.7-7.2,2.5-10.1,5.4c-3,2.9-5.3,6.1-7.2,9.8c-1.8,3.7-3,7.5-3.5,11.3
		C202.9,60.8,203.1,64.1,204,66.8z"/>
	<path class="st0" d="M343.8,18.3c0-3.4,0.7-6.2,2.1-8.4c1.4-2.1,3.4-3.8,5.9-5c2.5-1.2,5.4-2,8.7-2.4s6.6-0.7,10-0.7
		c2.9,0,5.8,0.1,8.7,0.3c3,0.1,5.8,0.4,8.5,0.8c8.9,0.7,16.5,3,22.5,7c6,3.9,10.3,10.9,12.8,21c1.6,6.1,2.2,11.4,1.9,15.7
		c-0.4,4.4-1.3,8-2.8,10.8c-1.6,2.8-3.4,4.8-5.7,6.1c-2.2,1.3-4.4,1.8-6.6,1.6c-3.3-0.4-5.4-1.8-6.6-4.1c-1.2-2.4-2-6.7-2.6-12.8
		c-0.1-2.4-0.7-4.5-1.8-6.4c-1-2-2.1-3.5-3.5-4.7c-1.3-1.2-2.7-2-4.1-2.4s-2.6-0.3-3.5,0.4c-1.6,1.1-2,3.5-1.2,7.2
		c0.8,3.8,2.4,8.1,4.7,13.1s5.3,10.1,8.9,15.6c3.6,5.5,7.4,10.5,11.3,15.1s7.9,8.3,11.8,11.2c3.9,2.9,7.5,4.2,10.8,4.1
		c2.7-0.1,4.3-1.8,4.9-4.9c0.5-3,0.5-7-0.1-12c-0.7-5-1.6-10.4-3-16.6c-1.3-6.1-2.7-12.3-3.9-18.5c-1.3-6.2-2.2-12.3-3-18.2
		c-0.7-5.9-0.7-11,0-15.4c0.7-4.3,4.1-7.6,10.1-9.8c6-2.2,12.6-3.4,19.8-3.4c6.4,0,12.4,1,17.9,3c5.5,2,8.9,5,10.4,9.2
		c0.9,2.9,1.6,8.3,1.9,16.2s0.5,17,0.4,27.2c-0.1,10.2-0.3,21.1-0.7,32.8s-0.7,22.6-1.1,32.9s-0.7,19.4-1,27.4
		c-0.3,7.9-0.4,13.4-0.4,16.4c0.1,2.7,0.4,5.6,0.5,8.7c0.1,3.2,0.1,6.1-0.3,8.7c-0.4,2.7-1.2,5-2.4,7c-1.3,2-3.3,3.3-5.9,3.8
		c-2,0.4-4.1,0.7-6.6,0.8c-2.4,0.1-5,0.3-7.7,0.3c-5.2,0-10.6-0.4-16.3-1.3c-5.7-0.9-10.4-2.5-14.1-4.9c-2.9-1.8-5.2-4.6-7.2-8.4
		c-1.9-3.8-3.2-7.6-3.8-11.5c-0.7-3.8-0.6-7.3,0.1-10.4c0.7-3,2.1-4.7,4.3-5.1c2.1-0.4,4.1,0.3,5.8,1.9c1.7,1.6,3.3,3.4,4.9,5.2
		c1.6,1.9,3.1,3.5,4.7,4.9c1.6,1.3,3.4,1.6,5.4,1c1.4-0.5,2.1-2,2-4.3c-0.1-2.4-0.5-5-1.3-8.1c-0.8-3-1.8-6.3-3-9.7
		s-2.2-6.4-3.1-9.2c-0.5-2-2.8-4.4-6.9-7.2c-4.1-2.8-8.6-5.5-13.6-8.1c-5-2.6-9.9-4.8-14.7-6.6c-4.7-1.8-8.2-2.5-10.4-2.1
		c-2.7,0.5-4.1,3.2-4.1,7.9c-0.1,4.7,0.7,10.6,2.4,17.7c1.7,7,4.1,14.6,7.4,22.8c3.3,8.2,6.7,15.8,10.5,23.1
		c1.4,2.4,1.6,4.6,0.7,6.7c-1,2.1-2.7,3.9-5.1,5.4s-5.2,2.6-8.5,3.5s-6.4,1.3-9.7,1.3c-2.9,0-6.4,0-10.5,0c-4.1,0-8.4-0.5-12.6-1.5
		c-4.3-1-8.4-2.7-12.3-5.2c-3.8-2.5-6.9-6.4-9-11.6c-0.9-2.4-1.6-7.5-2.1-15.5c-0.5-8-0.9-17.4-1.1-28.4
		c-0.1-10.9-0.2-22.7-0.1-35.3c0.1-12.6,0.2-24.6,0.4-36.1s0.4-21.7,0.5-30.6C343.7,28.4,343.8,22.1,343.8,18.3z"/>
	<path class="st0" d="M523.5,92.1c1.8-5.5,3.6-11.6,5.4-18.2c1.8-6.6,3.5-13.2,5-20c1.6-6.7,2.9-13.4,4.1-20s2.2-12.8,3-18.7
		c0.5-4.7,3.6-8.1,9.2-10.1s12-3.1,19.2-3.1c4.7,0,9.4,0.4,14.1,1.3c4.7,0.9,9.1,2.2,12.9,3.9c3.8,1.7,7,3.8,9.5,6.4
		s3.6,5.5,3.6,8.7c0,2.1,0.7,6.8,2,14c1.3,7.2,3.1,15.7,5.2,25.7s4.6,20.8,7.2,32.3c2.7,11.5,5.4,22.9,8.1,34.1s5.2,21.4,7.5,30.8
		c2.4,9.5,4.3,16.9,5.9,22.5c0.9,3.6,0.9,6.6,0,8.9c-0.9,2.4-2.4,4.2-4.7,5.7c-2.2,1.4-5,2.4-8.4,3.1c-3.3,0.6-7,1-10.9,1
		c-3.6,0-7.3-0.2-11.2-0.7c-3.8-0.4-7.6-1-11.2-1.5c-5.8-0.9-10.6-2.9-14.7-5.9c-4.1-3-7.2-6.4-9.3-10.2c-2.1-3.8-3.3-7.5-3.5-11.2
		s0.8-6.4,3-8.2c0.9-0.5,1.8-0.8,2.7-0.8c1.6,0,3.5,0.7,5.8,1.8c2.2,1.3,4.5,2.6,6.9,4.1c2.4,1.4,4.6,2.8,6.7,4.1
		c2.1,1.3,4.1,1.8,5.7,1.8c1.1,0,1.8-0.3,2.4-0.8c1.1-1.1,0.7-3.1-1-6.2c-1.7-3-4.2-6.6-7.5-10.6s-7.2-8.3-11.7-12.6
		c-4.5-4.4-9.1-8.4-13.9-12.1c-4.7-3.7-9.3-6.7-13.8-9.2c-4.4-2.4-8.1-3.6-11.2-3.6c-2,0-3.6,0.7-4.9,1.9c-1.4,1.4-1.9,3.8-1.5,7
		c0.4,3.3,1.5,7,3.1,11.2c1.6,4.2,3.6,8.7,5.9,13.3c2.4,4.7,4.6,9.1,6.7,13.2c2.1,4.1,4.1,7.8,5.7,10.9c1.6,3.2,2.5,5.3,2.7,6.6
		c0.4,2.7,0.1,5.2-0.7,7.7c-0.8,2.4-2.1,4.5-3.8,6.2c-1.7,1.7-4,3-6.9,3.8c-2.9,0.8-6.4,1-10.5,0.7c-3.9-0.4-8.2-0.7-12.6-0.8
		c-4.5-0.1-8.7-0.7-12.5-1.5c-3.8-0.8-7.2-2.2-10.1-4.3c-2.9-2.1-4.7-5.2-5.7-9.5c-0.9-4.3-0.7-10.3,0.8-17.9
		c1.4-7.6,3.4-15.8,5.8-24.6c2.4-8.8,5.1-17.7,8.1-26.7C518.5,106.8,521.2,99,523.5,92.1z M593.6,112.6c1.6-1.6,2.4-4.3,2.3-7.9
		c-0.1-3.7-0.7-7.8-1.9-12.3c-1.2-4.5-2.8-9.1-5-13.9c-2.1-4.7-4.4-9.1-6.9-13.1c-2.4-3.9-5-7.2-7.7-9.7c-2.7-2.5-5.1-3.8-7.2-3.8
		c-0.9,0-1.8,0.3-2.7,0.8c-3.3,2.4-5.1,5.4-5.7,9.3c-0.5,3.8-0.1,8.1,1.1,12.5c1.3,4.5,3.3,9.1,5.9,13.8s5.5,8.9,8.7,12.6
		c3,3.8,6.1,6.8,9,9.2s5.5,3.5,7.7,3.5C592,113.7,592.8,113.3,593.6,112.6z"/>
	<path class="st0" d="M666,6.7c2.7-0.4,6.6-0.6,11.7-0.7c5.1-0.1,10.4,0.1,16,0.4c5.5,0.4,10.9,1,16,2c5.1,1,9.1,2.4,12,4.4
		c2,1.3,3.8,3.6,5.7,7.2c1.8,3.5,3.1,7,3.9,10.6c0.8,3.6,1,6.8,0.7,9.7c-0.4,2.9-1.6,4.4-3.8,4.6c-2.7,0.1-5-0.1-7-1.1
		c-2-0.9-3.7-1.9-5.1-3c-1.4-1.1-2.7-2-3.8-2.7c-1.1-0.7-2.2-0.6-3.5,0.3c-0.7,0.5-0.4,2.4,0.8,5.4c1.3,3,3.2,6.7,5.8,11
		c2.6,4.3,5.7,8.9,9.3,13.8S732,78,735.4,82c3.5,4.1,6.9,7.4,10.2,10.1c3.3,2.7,6,3.9,7.9,3.8c1.4,0,2.1-1.6,2.1-4.6
		c0-3-0.4-6.9-1.3-11.6c-0.9-4.7-2.1-9.8-3.6-15.5c-1.6-5.7-3.1-11.2-4.7-16.4c-1.6-5.3-3.2-10.1-4.6-14.6c-1.4-4.4-2.6-7.7-3.5-9.8
		c-1.3-3-1.3-5.8,0-8.1c1.3-2.4,3.3-4.3,6.2-5.8c2.9-1.6,6.4-2.7,10.5-3.6c4.1-0.9,8.7-1.4,13.5-1.6c4.7-0.1,9-0.3,13.1-0.3
		c4.1,0,7.5,0.4,10.4,1.3s5.1,2.4,6.6,4.6c1.6,2.1,2.3,5.4,2.3,9.7c0,1.3,0,4.4,0,9.5s0,11.3,0,18.9s0,16,0,25.2s0,18.8,0,28.5
		c0,9.8-0.1,19.4-0.1,28.7s-0.1,17.9-0.1,25.7s-0.1,14.3-0.1,19.7c-0.1,5.3-0.2,8.7-0.4,10.4c-0.5,6.3-5,9.5-13.5,9.5
		c-7,0-16.6-2.2-28.5-6.7c-5.2-2-9.6-4.5-13.2-7.5c-3.6-3-6.4-6.1-8.4-9.2c-2-3-3.3-5.8-4.1-8.4c-0.7-2.5-0.8-4.2-0.3-5.1
		c0.7-1.4,1.7-2.4,3-3.1c1.3-0.6,2.6-1,4.1-1.2c1.4-0.1,2.9-0.2,4.3-0.1c1.4,0.1,2.7,0.1,3.8,0.1c0.7,0,0.3-1.3-1.3-3.9
		c-1.6-2.6-3.8-5.8-6.7-9.7c-2.9-3.8-6.2-8.1-10.1-12.6c-3.8-4.6-7.7-8.8-11.6-12.6c-3.8-3.8-7.6-7.1-11.3-9.7s-6.8-3.9-9.3-3.9
		c-1.1,0-2.1,0.3-3,0.8c-0.9,0.7-0.7,3.3,0.4,7.8c1.2,4.5,3,9.8,5.5,15.9c2.5,6.1,5.5,12.6,9,19.4c3.5,6.8,7,13,10.4,18.6
		c6.7,10.6,9.7,18.6,9.2,24.1c-0.5,5.5-3.3,8.7-8.1,9.5c-1.6,0.4-4.1,0.7-7.7,1.1c-3.5,0.4-7.3,0.5-11.5,0.5c-4.1,0-8.4-0.3-12.8-1
		c-4.4-0.7-8.5-1.8-12.4-3.4c-3.8-1.6-7.2-3.8-9.8-6.7c-2.7-2.9-4.5-6.7-5.4-11.3c-0.4-1.6-0.7-4.8-0.8-9.5s-0.3-10.6-0.4-17.4
		s-0.1-14.3-0.3-22.5c-0.1-8.2-0.1-16.5-0.3-25.1c-0.1-8.5-0.1-16.9-0.1-25.1c0-8.1-0.1-15.6-0.1-22.3c-0.1-6.7-0.1-12.4-0.3-17.1
		c-0.1-4.7-0.2-7.8-0.4-9.5c-0.1-2-0.4-4.2-0.5-6.7c-0.1-2.5-0.1-4.9,0.4-7s1.3-4.1,2.6-5.7C661.4,7.8,663.4,6.9,666,6.7z"/>
</g>
<g>
	<path class="st0" d="M101.1,284.4V279h29.1v5.5H101.1z"/>
	<path class="st0" d="M209.3,314.1v-85.6h6.1v80.2h40.7v5.5L209.3,314.1L209.3,314.1z"/>
	<path class="st0" d="M339.1,314.1L307.6,235h-0.3c0.1,1.5,0.1,3,0.2,4.5c0.1,1.6,0.1,3.3,0.1,5c0.1,1.7,0.1,3.5,0.1,5.4v64.3H302
		v-85.6h9.2l30.3,76.2h0.4l30.6-76.2h8.9v85.6h-5.9v-64.9c0-1.6,0-3.1,0.1-4.7c0.1-1.6,0.1-3.2,0.1-4.8c0.1-1.6,0.1-3.1,0.2-4.6
		h-0.4l-31.6,79H339.1z"/>
	<path class="st0" d="M499,314.1h-6.1l-50.6-75.7H442c0.1,2.1,0.1,4.2,0.2,6.4c0.1,2.1,0.1,4.4,0.1,6.7c0.1,2.3,0.1,4.7,0.1,7v55.6
		h-5.8v-85.6h6.2l50.4,75.5h0.3c-0.1-1.7-0.1-3.7-0.1-6c-0.1-2.3-0.1-4.6-0.1-7c-0.1-2.4-0.1-4.7-0.1-6.7v-55.8h5.8V314.1z"/>
	<path class="st0" d="M554.4,314.1v-85.6h6.1v80.2h40.7v5.5L554.4,314.1L554.4,314.1z"/>
	<path class="st0" d="M670.9,284.4V279H700v5.5H670.9z"/>
</g>
</svg>
